<mxfile host="app.diagrams.net" modified="2023-02-20T07:51:41.592Z" agent="5.0 (X11)" etag="qNWqoWyjYMr2ZMzkY-lu" version="20.8.20" type="github" pages="3">
  <diagram name="Map" id="o0u9ESd5L3pym0XIK_eO">
    <mxGraphModel dx="1434" dy="754" grid="1" gridSize="10" guides="1" tooltips="1" connect="1" arrows="1" fold="1" page="1" pageScale="1" pageWidth="850" pageHeight="1100" math="0" shadow="0">
      <root>
        <mxCell id="0" />
        <mxCell id="1" parent="0" />
        <mxCell id="7TelBfZ7dqQPQzsz8Gbh-6" style="edgeStyle=orthogonalEdgeStyle;rounded=0;orthogonalLoop=1;jettySize=auto;html=1;entryX=0.5;entryY=0;entryDx=0;entryDy=0;" edge="1" parent="1" source="7TelBfZ7dqQPQzsz8Gbh-1" target="7TelBfZ7dqQPQzsz8Gbh-2">
          <mxGeometry relative="1" as="geometry" />
        </mxCell>
        <mxCell id="7TelBfZ7dqQPQzsz8Gbh-1" value="&lt;div&gt;Website&lt;/div&gt;" style="rounded=0;whiteSpace=wrap;html=1;" vertex="1" parent="1">
          <mxGeometry x="360" y="220" width="120" height="60" as="geometry" />
        </mxCell>
        <mxCell id="7TelBfZ7dqQPQzsz8Gbh-8" style="edgeStyle=orthogonalEdgeStyle;rounded=0;orthogonalLoop=1;jettySize=auto;html=1;entryX=0.5;entryY=0;entryDx=0;entryDy=0;" edge="1" parent="1" source="7TelBfZ7dqQPQzsz8Gbh-2" target="7TelBfZ7dqQPQzsz8Gbh-5">
          <mxGeometry relative="1" as="geometry" />
        </mxCell>
        <mxCell id="7TelBfZ7dqQPQzsz8Gbh-12" style="edgeStyle=orthogonalEdgeStyle;rounded=0;orthogonalLoop=1;jettySize=auto;html=1;exitX=0;exitY=0.5;exitDx=0;exitDy=0;entryX=0.5;entryY=0;entryDx=0;entryDy=0;startArrow=none;startFill=0;" edge="1" parent="1" source="7TelBfZ7dqQPQzsz8Gbh-2" target="7TelBfZ7dqQPQzsz8Gbh-11">
          <mxGeometry relative="1" as="geometry" />
        </mxCell>
        <mxCell id="7TelBfZ7dqQPQzsz8Gbh-2" value="Main page" style="rounded=0;whiteSpace=wrap;html=1;" vertex="1" parent="1">
          <mxGeometry x="360" y="310" width="120" height="60" as="geometry" />
        </mxCell>
        <mxCell id="7TelBfZ7dqQPQzsz8Gbh-3" value="User&#39;s page" style="rounded=0;whiteSpace=wrap;html=1;" vertex="1" parent="1">
          <mxGeometry x="40" y="540" width="120" height="60" as="geometry" />
        </mxCell>
        <mxCell id="7TelBfZ7dqQPQzsz8Gbh-4" value="Basket&#39;s page" style="rounded=0;whiteSpace=wrap;html=1;" vertex="1" parent="1">
          <mxGeometry x="210" y="540" width="120" height="60" as="geometry" />
        </mxCell>
        <mxCell id="7TelBfZ7dqQPQzsz8Gbh-5" value="Product page" style="rounded=0;whiteSpace=wrap;html=1;" vertex="1" parent="1">
          <mxGeometry x="520" y="400" width="120" height="60" as="geometry" />
        </mxCell>
        <mxCell id="7TelBfZ7dqQPQzsz8Gbh-10" style="edgeStyle=orthogonalEdgeStyle;rounded=0;orthogonalLoop=1;jettySize=auto;html=1;entryX=1;entryY=0.5;entryDx=0;entryDy=0;startArrow=classic;startFill=1;" edge="1" parent="1" source="7TelBfZ7dqQPQzsz8Gbh-9" target="7TelBfZ7dqQPQzsz8Gbh-1">
          <mxGeometry relative="1" as="geometry">
            <Array as="points">
              <mxPoint x="580" y="250" />
            </Array>
          </mxGeometry>
        </mxCell>
        <mxCell id="7TelBfZ7dqQPQzsz8Gbh-9" value="&lt;div&gt;Database&lt;/div&gt;&lt;div&gt;&lt;br&gt;&lt;/div&gt;&lt;div&gt;Postgresql&lt;br&gt;&lt;/div&gt;" style="rounded=0;whiteSpace=wrap;html=1;" vertex="1" parent="1">
          <mxGeometry x="520" y="100" width="120" height="60" as="geometry" />
        </mxCell>
        <mxCell id="7TelBfZ7dqQPQzsz8Gbh-13" style="edgeStyle=orthogonalEdgeStyle;rounded=0;orthogonalLoop=1;jettySize=auto;html=1;startArrow=none;startFill=0;" edge="1" parent="1" source="7TelBfZ7dqQPQzsz8Gbh-11" target="7TelBfZ7dqQPQzsz8Gbh-3">
          <mxGeometry relative="1" as="geometry">
            <Array as="points">
              <mxPoint x="100" y="435" />
            </Array>
          </mxGeometry>
        </mxCell>
        <mxCell id="7TelBfZ7dqQPQzsz8Gbh-14" style="edgeStyle=orthogonalEdgeStyle;rounded=0;orthogonalLoop=1;jettySize=auto;html=1;startArrow=none;startFill=0;entryX=0.5;entryY=0;entryDx=0;entryDy=0;" edge="1" parent="1" source="7TelBfZ7dqQPQzsz8Gbh-11" target="7TelBfZ7dqQPQzsz8Gbh-4">
          <mxGeometry relative="1" as="geometry">
            <mxPoint x="270" y="520" as="targetPoint" />
          </mxGeometry>
        </mxCell>
        <mxCell id="7TelBfZ7dqQPQzsz8Gbh-11" value="Authorization" style="ellipse;whiteSpace=wrap;html=1;" vertex="1" parent="1">
          <mxGeometry x="160" y="410" width="220" height="50" as="geometry" />
        </mxCell>
      </root>
    </mxGraphModel>
  </diagram>
  <diagram id="vscdhnf1IP9AKLzXeYDI" name="Database">
    <mxGraphModel dx="1434" dy="754" grid="1" gridSize="10" guides="1" tooltips="1" connect="1" arrows="1" fold="1" page="1" pageScale="1" pageWidth="850" pageHeight="1100" math="0" shadow="0">
      <root>
        <mxCell id="0" />
        <mxCell id="1" parent="0" />
        <mxCell id="XSLU7bmQ6oAd9NfZbFsR-14" value="User" style="swimlane;childLayout=stackLayout;horizontal=1;startSize=30;horizontalStack=0;rounded=1;fontSize=14;fontStyle=0;strokeWidth=2;resizeParent=0;resizeLast=1;shadow=0;dashed=0;align=center;" vertex="1" parent="1">
          <mxGeometry x="190" y="140" width="160" height="120" as="geometry" />
        </mxCell>
        <mxCell id="XSLU7bmQ6oAd9NfZbFsR-15" value="id&#xa;namelast_name&#xa;phone&#xa;email&#xa;" style="align=left;strokeColor=none;fillColor=none;spacingLeft=4;fontSize=12;verticalAlign=top;resizable=0;rotatable=0;part=1;" vertex="1" parent="XSLU7bmQ6oAd9NfZbFsR-14">
          <mxGeometry y="30" width="160" height="90" as="geometry" />
        </mxCell>
        <mxCell id="XSLU7bmQ6oAd9NfZbFsR-16" value="Product" style="swimlane;childLayout=stackLayout;horizontal=1;startSize=30;horizontalStack=0;rounded=1;fontSize=14;fontStyle=0;strokeWidth=2;resizeParent=0;resizeLast=1;shadow=0;dashed=0;align=center;" vertex="1" parent="1">
          <mxGeometry x="440" y="140" width="160" height="120" as="geometry" />
        </mxCell>
        <mxCell id="XSLU7bmQ6oAd9NfZbFsR-17" value="id&#xa;name&#xa;description&#xa;price&#xa;photo_url&#xa;&#xa;" style="align=left;strokeColor=none;fillColor=none;spacingLeft=4;fontSize=12;verticalAlign=top;resizable=0;rotatable=0;part=1;" vertex="1" parent="XSLU7bmQ6oAd9NfZbFsR-16">
          <mxGeometry y="30" width="160" height="90" as="geometry" />
        </mxCell>
        <mxCell id="XSLU7bmQ6oAd9NfZbFsR-18" value="Basket" style="swimlane;childLayout=stackLayout;horizontal=1;startSize=30;horizontalStack=0;rounded=1;fontSize=14;fontStyle=0;strokeWidth=2;resizeParent=0;resizeLast=1;shadow=0;dashed=0;align=center;" vertex="1" parent="1">
          <mxGeometry x="190" y="340" width="160" height="120" as="geometry" />
        </mxCell>
        <mxCell id="XSLU7bmQ6oAd9NfZbFsR-19" value="id_user&#xa;id_product&#xa;" style="align=left;strokeColor=none;fillColor=none;spacingLeft=4;fontSize=12;verticalAlign=top;resizable=0;rotatable=0;part=1;" vertex="1" parent="XSLU7bmQ6oAd9NfZbFsR-18">
          <mxGeometry y="30" width="160" height="90" as="geometry" />
        </mxCell>
      </root>
    </mxGraphModel>
  </diagram>
  <diagram id="2bDGyru1VSrFtAbP4d5E" name="Template">
    <mxGraphModel dx="1434" dy="754" grid="1" gridSize="10" guides="1" tooltips="1" connect="1" arrows="1" fold="1" page="1" pageScale="1" pageWidth="850" pageHeight="1100" math="0" shadow="0">
      <root>
        <mxCell id="0" />
        <mxCell id="1" parent="0" />
      </root>
    </mxGraphModel>
  </diagram>
</mxfile>
